<svg width="18" height="15" viewBox="0 0 18 15" fill="none" xmlns="http://www.w3.org/2000/svg">
<g clip-path="url(#clip0_803_3758)">
<path d="M16.1094 3.72988C16.1203 3.88768 16.1203 4.04549 16.1203 4.20475C16.1203 9.05745 12.4332 14.6541 5.69122 14.6541V14.6512C3.69961 14.6541 1.74937 14.0825 0.0727539 13.0048C0.362351 13.0397 0.653399 13.0571 0.945173 13.0578C2.59566 13.0593 4.19896 12.5044 5.49743 11.4827C3.92896 11.4529 2.55356 10.4282 2.07308 8.93237C2.62251 9.03854 3.18864 9.01672 3.72792 8.8691C2.01792 8.52294 0.787673 7.01761 0.787673 5.26939C0.787673 5.25339 0.787673 5.23812 0.787673 5.22285C1.29719 5.50719 1.86767 5.66499 2.45122 5.68245C0.840657 4.60399 0.344205 2.45725 1.31679 0.778842C3.17775 3.0732 5.92348 4.468 8.87098 4.61562C8.57558 3.34009 8.97913 2.00347 9.93138 1.10682C11.4077 -0.283618 13.7295 -0.212351 15.1173 1.26608C15.9382 1.10391 16.7249 0.802113 17.4449 0.374511C17.1713 1.22462 16.5986 1.94675 15.8336 2.40562C16.5602 2.31981 17.27 2.12491 17.9385 1.82748C17.4464 2.56633 16.8265 3.20992 16.1094 3.72988Z" fill="#1D9BF0"/>
</g>
<defs>
<clipPath id="clip0_803_3758">
<rect width="18" height="14.8352" fill="white"/>
</clipPath>
</defs>
</svg>
